<svg width="31" height="26" viewBox="0 0 31 26" fill="none" xmlns="http://www.w3.org/2000/svg">
<g clip-path="url(#clip0_62_6)">
<path d="M20.1383 8.48875C21.6319 8.48875 23.0643 8.99053 24.1205 9.88373C25.1766 10.7769 25.77 11.9883 25.77 13.2515V18.9668H14.5067V13.2515C14.5067 11.9883 15.1 10.7769 16.1561 9.88373C17.2123 8.99053 18.6447 8.48875 20.1383 8.48875ZM12.5784 11.3521C12.3991 11.8634 12.2932 12.3911 12.263 12.9238L12.254 13.2515V18.9668H8.875V14.6803C8.87478 13.8588 9.23321 13.0662 9.88153 12.4544C10.5299 11.8427 11.4224 11.4549 12.388 11.3655L12.5795 11.3521H12.5784ZM27.6982 11.3521C28.7006 11.4038 29.6418 11.7769 30.33 12.3954C31.0182 13.0139 31.4015 13.8311 31.4016 14.6803V18.9668H28.0226V13.2515C28.0226 12.5914 27.91 11.9541 27.6982 11.3521ZM12.8172 5.63109C13.564 5.63109 14.2802 5.88198 14.8082 6.32858C15.3363 6.77517 15.633 7.38089 15.633 8.01247C15.633 8.64405 15.3363 9.24976 14.8082 9.69636C14.2802 10.143 13.564 10.3939 12.8172 10.3939C12.0704 10.3939 11.3541 10.143 10.8261 9.69636C10.298 9.24976 10.0013 8.64405 10.0013 8.01247C10.0013 7.38089 10.298 6.77517 10.8261 6.32858C11.3541 5.88198 12.0704 5.63109 12.8172 5.63109ZM27.4595 5.63109C28.2063 5.63109 28.9225 5.88198 29.4505 6.32858C29.9786 6.77517 30.2753 7.38089 30.2753 8.01247C30.2753 8.64405 29.9786 9.24976 29.4505 9.69636C28.9225 10.143 28.2063 10.3939 27.4595 10.3939C26.7127 10.3939 25.9964 10.143 25.4684 9.69636C24.9403 9.24976 24.6436 8.64405 24.6436 8.01247C24.6436 7.38089 24.9403 6.77517 25.4684 6.32858C25.9964 5.88198 26.7127 5.63109 27.4595 5.63109ZM20.1383 -0.0842285C21.3332 -0.0842285 22.4791 0.317203 23.324 1.03176C24.169 1.74631 24.6436 2.71545 24.6436 3.72598C24.6436 4.73651 24.169 5.70566 23.324 6.42021C22.4791 7.13476 21.3332 7.53619 20.1383 7.53619C18.9434 7.53619 17.7975 7.13476 16.9526 6.42021C16.1076 5.70566 15.633 4.73651 15.633 3.72598C15.633 2.71545 16.1076 1.74631 16.9526 1.03176C17.7975 0.317203 18.9434 -0.0842285 20.1383 -0.0842285Z" fill="white"/>
</g>
<defs>
<clipPath id="clip0_62_6">
<rect width="31" height="26" fill="white"/>
</clipPath>
</defs>
</svg>
