<svg width="45" height="44" viewBox="0 0 45 44" fill="none" xmlns="http://www.w3.org/2000/svg">
<path d="M14.5165 28.4897L15.8428 29.9139L13.0183 32.9206C12.6745 33.3031 12.0605 33.3031 11.7166 32.9206C11.3728 32.5382 11.3605 31.892 11.7166 31.5228L14.5165 28.4897ZM31.4512 12.665V10.7924L23.7268 19.0872L16.0025 10.7924V12.665L22.8549 20.0235L18.2007 25.0478C16.7516 23.9401 14.7376 24.072 13.4481 25.4566L18.6673 31.0612C19.9568 29.6766 20.0796 27.5138 19.0603 25.9577L31.4512 12.665M35.737 31.5228L32.9371 28.4897L31.6108 29.9139L34.4353 32.9206C34.7792 33.3031 35.3932 33.3031 35.737 32.9206C36.0809 32.5382 36.0932 31.892 35.737 31.5228M29.253 25.0478L25.4706 20.9598L24.5987 21.8961L28.4057 25.9577C27.3741 27.5138 27.4969 29.6766 28.7863 31.0612L34.0055 25.4566C32.7161 24.072 30.7021 23.9401 29.253 25.0478V25.0478Z" fill="white"/>
</svg>
