<svg width="500" height="500" viewBox="0 0 500 500" fill="none" xmlns="http://www.w3.org/2000/svg">
<path d="M129.167 50.8333L377.083 298.75L421.25 254.583L450.625 283.958L399.167 335.417L465.417 401.667C473.542 409.792 473.542 422.917 465.417 431.042L450.625 445.833C448.698 447.765 446.408 449.297 443.888 450.342C441.368 451.388 438.666 451.926 435.937 451.926C433.209 451.926 430.507 451.388 427.987 450.342C425.467 449.297 423.177 447.765 421.25 445.833L354.167 379.792L303.333 431.25L273.958 401.875L318.125 357.708L70.2083 109.792V50.8333H129.167ZM331.042 208.333L429.792 109.583V50.8333H370.833L272.083 149.583L331.042 208.333ZM227.917 312.5L168.958 252.708L122.917 298.75L78.75 254.583L49.375 283.958L100.833 335.417L34.5833 401.875C32.652 403.802 31.1197 406.092 30.0743 408.612C29.0288 411.132 28.4907 413.834 28.4907 416.562C28.4907 419.291 29.0288 421.993 30.0743 424.513C31.1197 427.033 32.652 429.323 34.5833 431.25L49.375 446.042C57.5 454.167 70.625 454.167 78.75 446.042L145.833 379.792L196.667 431.25L226.042 401.875L181.875 357.708L227.917 312.5V312.5Z" fill="white"/>
</svg>
