<svg width="206" height="206" viewBox="0 0 206 206" fill="none" xmlns="http://www.w3.org/2000/svg">
<path d="M203.7 2.30001C202.176 0.814226 200.128 -0.0119927 198 6.83076e-06L134.2 0.200008C133.017 0.201538 131.85 0.461947 130.779 0.962943C129.707 1.46394 128.759 2.19337 128 3.10001L57.6 88.3L49.3 80C46.2878 77.032 42.2288 75.3682 38 75.3682C33.7712 75.3682 29.7122 77.032 26.7 80L14 92.7C12.5064 94.1785 11.3207 95.9384 10.5115 97.878C9.70232 99.8176 9.28568 101.898 9.28568 104C9.28568 106.102 9.70232 108.182 10.5115 110.122C11.3207 112.062 12.5064 113.822 14 115.3L34.9 136.2L4.89997 166.1C1.92568 169.129 0.259277 173.205 0.259277 177.45C0.259277 181.695 1.92568 185.771 4.89997 188.8L17.2 201.1C20.2414 204.051 24.3124 205.701 28.55 205.701C32.7875 205.701 36.8585 204.051 39.9 201.1L69.8 171.1L90.7 192C93.7122 194.968 97.7712 196.632 102 196.632C106.229 196.632 110.288 194.968 113.3 192L126 179.3C127.494 177.822 128.679 176.062 129.488 174.122C130.298 172.182 130.714 170.102 130.714 168C130.714 165.898 130.298 163.818 129.488 161.878C128.679 159.938 127.494 158.178 126 156.7L117.7 148.4L202.9 78C203.807 77.2409 204.536 76.2925 205.037 75.2214C205.538 74.1503 205.798 72.9825 205.8 71.8L206 8.00001C206.012 5.87162 205.186 3.82403 203.7 2.30001V2.30001ZM102 180.7L81.1 159.8C79.6215 158.306 77.8615 157.121 75.922 156.312C73.9824 155.502 71.9016 155.086 69.8 155.086C67.6984 155.086 65.6176 155.502 63.678 156.312C61.7384 157.121 59.9785 158.306 58.5 159.8L28.5 189.7L16.3 177.5L46.2 147.5C49.168 144.488 50.8318 140.429 50.8318 136.2C50.8318 131.971 49.168 127.912 46.2 124.9L25.3 104L38 91.3L52.5 105.8L76.3 129.7L114.7 168L102 180.7ZM189.8 68L106.3 137L93.3 124L147.7 69.7C148.976 68.1456 149.628 66.1723 149.529 64.1639C149.43 62.1555 148.588 60.2556 147.166 58.8337C145.744 57.4118 143.844 56.5696 141.836 56.471C139.828 56.3724 137.854 57.0243 136.3 58.3L82 112.7L69 99.7L138 16.2L190 16L189.8 68Z" fill="white"/>
</svg>
