<svg width="20" height="20" viewBox="0 0 20 20" fill="none" xmlns="http://www.w3.org/2000/svg">
<path d="M17.5 0H2.5C1.83696 0 1.20107 0.263392 0.732233 0.732233C0.263392 1.20107 0 1.83696 0 2.5V17.5C0 18.163 0.263392 18.7989 0.732233 19.2678C1.20107 19.7366 1.83696 20 2.5 20H17.5C18.163 20 18.7989 19.7366 19.2678 19.2678C19.7366 18.7989 20 18.163 20 17.5V2.5C20 1.83696 19.7366 1.20107 19.2678 0.732233C18.7989 0.263392 18.163 0 17.5 0ZM8.7 15.2C8.7 15.5183 8.57357 15.8235 8.34853 16.0485C8.12348 16.2736 7.81826 16.4 7.5 16.4H3.8C3.14 16.4 2.6 15.86 2.6 15.2V3.8C2.6 3.48174 2.72643 3.17652 2.95147 2.95147C3.17652 2.72643 3.48174 2.6 3.8 2.6H7.5C8.16 2.6 8.7 3.14 8.7 3.8V15.2ZM17.4 10.2C17.4 10.86 16.86 11.4 16.2 11.4H12.5C11.84 11.4 11.3 10.86 11.3 10.2V3.8C11.3 3.14 11.84 2.6 12.5 2.6H16.2C16.86 2.6 17.4 3.14 17.4 3.8V10.2Z" fill="white"/>
</svg>
