<svg width="24" height="19" viewBox="0 0 24 19" fill="none" xmlns="http://www.w3.org/2000/svg">
<path d="M0.0403002 8.57191C-0.200501 11.4159 0.642302 13.786 2.44831 15.919C4.25432 18.052 6.66233 19 9.55194 19H21.592C22.194 19 22.796 18.763 23.2776 18.289C23.7592 17.815 24 17.2225 24 16.63V15.682C24 14.971 23.8796 14.1415 23.7592 13.0749H13.8864C12.6824 13.0749 11.7191 12.6009 10.8763 11.7714C10.0335 10.9419 9.55194 9.87542 9.55194 8.80891C9.55194 6.91289 10.3947 5.60938 12.2008 4.89838L17.98 2.40985C15.9332 0.98784 13.5252 0.158333 10.7559 0.0398316C8.10713 -0.19717 5.69912 0.632337 3.53191 2.29135C1.36471 3.95037 0.281101 5.96488 0.0403002 8.57191ZM11.9599 8.80891C11.9599 9.28291 12.2008 9.75692 12.562 10.1124C12.9232 10.4679 13.4048 10.7049 13.8864 10.7049H23.2776C22.5552 8.0979 21.4716 5.96488 19.9064 4.30587L13.164 7.03139C12.3212 7.2684 11.9599 7.8609 11.9599 8.80891Z" fill="white"/>
</svg>
