<svg width="24" height="14" viewBox="0 0 24 14" fill="none" xmlns="http://www.w3.org/2000/svg">
<path d="M6.6087 0.875H24V4.375H22.913V5.25H16.3913C16.103 5.25 15.8266 5.34219 15.6227 5.50628C15.4189 5.67038 15.3043 5.89294 15.3043 6.125V7C15.3043 7.46413 15.0753 7.90925 14.6676 8.23744C14.2599 8.56563 13.707 8.75 13.1304 8.75H9.45652C9.04348 8.75 8.66304 8.9425 8.47826 9.24L5.81522 13.5188C5.63043 13.8163 5.26087 14 4.84783 14H1.17391C1.17391 14 -2.08696 14 2.26087 8.75C2.26087 8.75 5.52174 5.25 1.17391 5.25V0.875H2.26087L2.80435 0H6.06522L6.6087 0.875ZM14.2174 7V6.125C14.2174 5.89294 14.1029 5.67038 13.899 5.50628C13.6952 5.34219 13.4187 5.25 13.1304 5.25H12.0435C12.0435 5.25 10.9565 6.125 12.0435 7C11.4669 7 10.914 6.81563 10.5063 6.48744C10.0986 6.15925 9.86957 5.71413 9.86957 5.25C9.58129 5.25 9.30481 5.34219 9.10097 5.50628C8.89713 5.67038 8.78261 5.89294 8.78261 6.125V7C8.78261 7.23206 8.89713 7.45462 9.10097 7.61872C9.30481 7.78281 9.58129 7.875 9.86957 7.875H13.1304C13.4187 7.875 13.6952 7.78281 13.899 7.61872C14.1029 7.45462 14.2174 7.23206 14.2174 7Z" fill="white"/>
</svg>
