<svg width="23" height="17" viewBox="0 0 23 17" fill="none" xmlns="http://www.w3.org/2000/svg">
<path d="M1.37476 8.0002H2.49976V15.0002C2.49976 16.1032 3.50888 17.0002 4.74976 17.0002H18.2498C19.4906 17.0002 20.4998 16.1032 20.4998 15.0002V8.0002H21.6248C21.8472 8.00016 22.0647 7.94149 22.2496 7.8316C22.4346 7.72172 22.5788 7.56556 22.6639 7.38286C22.749 7.20016 22.7713 6.99912 22.7279 6.80517C22.6845 6.61122 22.5774 6.43305 22.4201 6.2932L12.2951 -2.7068C12.1907 -2.79974 12.0668 -2.87348 11.9303 -2.92379C11.7938 -2.9741 11.6475 -3 11.4998 -3C11.352 -3 11.2057 -2.9741 11.0692 -2.92379C10.9327 -2.87348 10.8088 -2.79974 10.7044 -2.7068L0.579385 6.2932C0.4221 6.43305 0.314992 6.61122 0.271604 6.80517C0.228215 6.99912 0.250494 7.20016 0.335623 7.38286C0.420751 7.56556 0.564908 7.72172 0.749869 7.8316C0.93483 7.94149 1.15229 8.00016 1.37476 8.0002ZM9.24976 15.0002V10.0002H13.7498V15.0002H9.24976ZM11.4998 -0.585798L18.2498 5.4142V10.0002L18.2509 15.0002H15.9998V10.0002C15.9998 8.8972 14.9906 8.0002 13.7498 8.0002H9.24976C8.00888 8.0002 6.99976 8.8972 6.99976 10.0002V15.0002H4.74976V5.4142L11.4998 -0.585798Z" fill="white"/>
</svg>
