<svg width="25" height="24" viewBox="0 0 25 24" fill="none" xmlns="http://www.w3.org/2000/svg">
<path d="M6.26836 4.36043L9.08423 7.05191L7.34574 8.72086L4.54212 6.01763L1.73849 8.72086L0 7.05191L2.81587 4.36043L0 1.66895L1.73849 0L4.54212 2.70323L7.34574 0L9.08423 1.66895M25 16.9481L23.2615 15.2791L20.4579 17.9824L17.6543 15.2791L15.9158 16.9481L18.7316 19.6396L15.9158 22.331L17.6543 24L20.4579 21.2968L23.2615 24L25 22.331L22.1841 19.6396M22.784 5.9236L18.8418 10.8247L16.9074 9.33203L18.3399 7.56905C16.5128 7.92534 14.8085 8.71704 13.3836 9.87129C11.9588 11.0255 10.8592 12.5053 10.1861 14.1743C11.2517 14.912 12.0076 15.991 12.3175 17.2167C12.6274 18.4423 12.4708 19.734 11.8761 20.8585C11.2813 21.9831 10.2875 22.8667 9.0739 23.3498C7.86031 23.8329 6.50683 23.8837 5.25763 23.4932C4.00842 23.1026 2.94571 22.2963 2.26121 21.2198C1.5767 20.1433 1.31546 18.8674 1.5246 17.6222C1.73375 16.3771 2.39952 15.2447 3.40181 14.4293C4.4041 13.6138 5.67693 13.1691 6.9907 13.1753C7.31145 13.1766 7.6313 13.2081 7.94564 13.2693C8.79385 11.2485 10.1482 9.45978 11.8887 8.06159C13.6292 6.6634 15.702 5.69894 17.9236 5.25367L16.1729 3.98433L17.7277 2.12733M10.0514 18.4643C10.0514 17.8831 9.87191 17.315 9.5356 16.8318C9.19928 16.3486 8.72126 15.972 8.16199 15.7496C7.60271 15.5272 6.9873 15.469 6.39358 15.5824C5.79986 15.6958 5.25449 15.9756 4.82644 16.3866C4.39839 16.7975 4.10688 17.321 3.98878 17.891C3.87068 18.461 3.9313 19.0518 4.16295 19.5887C4.39461 20.1256 4.78691 20.5845 5.29025 20.9074C5.79358 21.2302 6.38534 21.4025 6.9907 21.4025C7.80245 21.4025 8.58096 21.093 9.15496 20.5419C9.72895 19.9909 10.0514 19.2435 10.0514 18.4643Z" fill="white"/>
</svg>
