<svg width="23" height="22" viewBox="0 0 23 22" fill="none" xmlns="http://www.w3.org/2000/svg">
<path d="M20.9043 3.11268C21.4557 3.7461 21.9 4.4361 22.2341 5.16068C21.7337 5.73252 21.0369 6.11599 20.2679 6.24265C19.4989 6.36932 18.7078 6.23096 18.0358 5.85225L20.9043 3.11268ZM19.7391 2.00145L16.8722 4.74102C16.4761 4.09933 16.3315 3.34416 16.4641 2.61012C16.5968 1.87607 16.998 1.21086 17.5964 0.733042C18.3551 1.05054 19.0775 1.47491 19.7391 2.00145ZM21.5528 13.337C22.8551 11.4092 23.3026 9.06639 22.7969 6.8236C21.9587 7.4653 20.9242 7.82856 19.8504 7.85834C18.7765 7.88812 17.7217 7.58279 16.8459 6.98863L15.8749 7.91597L21.5528 13.337ZM15.6824 5.8774C15.0602 5.04093 14.7405 4.03359 14.7717 3.00801C14.8029 1.98243 15.1833 0.994508 15.8552 0.19393C13.5068 -0.288989 11.0537 0.138408 9.03517 1.38218L14.713 6.80473L15.684 5.8774H15.6824ZM7.73338 2.36138C6.8145 3.18778 6.08733 4.18907 5.59884 5.30056C7.79263 5.91355 10.4489 6.96663 12.6295 8.793L13.5478 7.91597L7.73174 2.36138H7.73338ZM13.798 9.89952L14.7114 9.0272L20.5275 14.5818C19.6703 15.4488 18.6349 16.1375 17.4861 16.6046C16.8426 14.5048 15.7317 11.9742 13.798 9.89952ZM16.4443 19.4495C16.4427 21.0637 14.922 22.296 13.1611 21.9376C10.727 21.4441 7.029 20.3265 4.40897 17.8259C1.79716 15.3315 0.607282 11.7966 0.0707673 9.46414C0.0244727 9.26652 0.000745094 9.06468 0 8.86216C0 7.25268 1.51409 6.01414 3.27998 6.36779C5.74202 6.85817 9.48282 7.97098 12.1045 10.4748C14.7328 12.9833 15.8815 16.5465 16.3834 18.8837C16.4246 19.077 16.4443 19.2656 16.4443 19.4495ZM7.53425 12.4128C7.37905 12.2696 7.17119 12.1904 6.95544 12.1922C6.73968 12.194 6.53329 12.2766 6.38072 12.4223C6.22816 12.568 6.14162 12.7651 6.13974 12.9712C6.13787 13.1773 6.22081 13.3758 6.3707 13.524L8.83933 15.8816C8.91523 15.9567 9.00603 16.0166 9.10643 16.0577C9.20682 16.0989 9.3148 16.1206 9.42406 16.1215C9.53332 16.1224 9.64168 16.1025 9.74281 16.063C9.84394 16.0235 9.93581 15.9652 10.0131 15.8914C10.0903 15.8176 10.1514 15.7298 10.1928 15.6333C10.2342 15.5367 10.255 15.4332 10.2541 15.3288C10.2531 15.2245 10.2304 15.1214 10.1873 15.0255C10.1442 14.9296 10.0815 14.8429 10.0029 14.7704L7.53425 12.4128Z" fill="white"/>
</svg>
