<svg width="27" height="32" viewBox="0 0 27 32" fill="none" xmlns="http://www.w3.org/2000/svg">
<path d="M0.486328 17.9548C0.486328 21.4358 1.86914 24.7742 4.33055 27.2356C6.79197 29.697 10.1304 31.0798 13.6113 31.0798C13.6113 23.7882 7.73424 17.9548 0.486328 17.9548ZM13.6113 7.01733C14.5783 7.01733 15.5056 7.40145 16.1893 8.08517C16.873 8.7689 17.2572 9.69623 17.2572 10.6632C17.2572 11.6301 16.873 12.5574 16.1893 13.2412C15.5056 13.9249 14.5783 14.309 13.6113 14.309C12.6444 14.309 11.7171 13.9249 11.0333 13.2412C10.3496 12.5574 9.9655 11.6301 9.9655 10.6632C9.9655 9.69623 10.3496 8.7689 11.0333 8.08517C11.7171 7.40145 12.6444 7.01733 13.6113 7.01733ZM4.27799 13.9444C4.27799 14.9114 4.66211 15.8387 5.34583 16.5224C6.02956 17.2061 6.95689 17.5903 7.92383 17.5903C8.69675 17.5903 9.41133 17.3423 9.9655 16.9486V17.2257C9.9655 18.1926 10.3496 19.1199 11.0333 19.8037C11.7171 20.4874 12.6444 20.8715 13.6113 20.8715C14.5783 20.8715 15.5056 20.4874 16.1893 19.8037C16.873 19.1199 17.2572 18.1926 17.2572 17.2257V16.9486C17.8113 17.3423 18.5259 17.5903 19.2988 17.5903C20.2658 17.5903 21.1931 17.2061 21.8768 16.5224C22.5605 15.8387 22.9447 14.9114 22.9447 13.9444C22.9447 12.4861 22.0842 11.2465 20.8592 10.6632C22.0842 10.0798 22.9447 8.82567 22.9447 7.38192C22.9447 6.41498 22.5605 5.48765 21.8768 4.80392C21.1931 4.1202 20.2658 3.73608 19.2988 3.73608C18.5259 3.73608 17.8113 3.96942 17.2572 4.37775V4.10067C17.2572 3.13373 16.873 2.2064 16.1893 1.52267C15.5056 0.838947 14.5783 0.454834 13.6113 0.454834C12.6444 0.454834 11.7171 0.838947 11.0333 1.52267C10.3496 2.2064 9.9655 3.13373 9.9655 4.10067V4.37775C9.41133 3.96942 8.69675 3.73608 7.92383 3.73608C6.95689 3.73608 6.02956 4.1202 5.34583 4.80392C4.66211 5.48765 4.27799 6.41498 4.27799 7.38192C4.27799 8.82567 5.13841 10.0798 6.36341 10.6632C5.13841 11.2465 4.27799 12.4861 4.27799 13.9444ZM13.6113 31.0798C17.0923 31.0798 20.4307 29.697 22.8921 27.2356C25.3535 24.7742 26.7363 21.4358 26.7363 17.9548C19.4447 17.9548 13.6113 23.7882 13.6113 31.0798Z" fill="white"/>
</svg>
